<svg version="1.2" baseProfile="tiny-ps" xmlns="http://www.w3.org/2000/svg" viewBox="0 0 355 355" width="355" height="355"><title>Group 10-svg</title><defs><linearGradient id="grd1" gradientUnits="userSpaceOnUse"  x1="57807" y1="-61628.798" x2="57807" y2="126767.599"><stop offset="0" stop-color="#65d09b"  /><stop offset="100" stop-color="#4db38e"  /></linearGradient></defs><style>tspan { white-space:pre }.shp0 { fill: url(#grd1) } .shp1 { opacity: 0.153;fill: #000000 } .shp2 { opacity: 0.188;fill: #131514 } .shp3 { fill: #000000 } .shp4 { fill: #ffffff } .shp5 { fill: #44b392 } </style><g ><g ><g ><g ><path class="shp0" d="M7 77C7 38.34 38.34 7 77 7L277 7C315.66 7 347 38.34 347 77L347 277C347 315.66 315.66 347 277 347L77 347C38.34 347 7 315.66 7 277L7 77Z" /><path class="shp1" d="M244.61 145.16C241.73 142.28 237.05 142.28 234.16 145.16C231.28 148.04 231.28 152.7 234.16 155.58C241.94 163.33 246.22 173.6 246.22 184.5C246.22 195.4 241.94 205.67 234.16 213.42C231.28 216.3 231.28 220.97 234.16 223.84C235.61 225.28 237.5 226 239.39 226C241.28 226 243.17 225.28 244.61 223.84C255.18 213.3 261 199.33 261 184.5C261 169.67 255.18 155.69 244.61 145.16Z" /><path class="shp2" d="M274.33 120.16C271.51 117.28 266.94 117.28 264.12 120.16C261.29 123.04 261.29 127.71 264.12 130.59C292.7 159.76 292.7 207.24 264.12 236.41C261.29 239.29 261.29 243.96 264.12 246.84C265.53 248.28 267.38 249 269.22 249C271.07 249 272.92 248.28 274.33 246.84C308.56 211.91 308.56 155.08 274.33 120.16Z" /><g ><path class="shp3" d="M49 187.5C49 180.04 55.04 174 62.5 174L203.5 174C210.96 174 217 180.04 217 187.5L217 187.5C217 194.96 210.96 201 203.5 201L62.5 201C55.04 201 49 194.96 49 187.5L49 187.5Z" /><path class="shp4" d="M49 187.5C49 180.04 55.04 174 62.5 174L203.5 174C210.96 174 217 180.04 217 187.5L217 187.5C217 194.96 210.96 201 203.5 201L62.5 201C55.04 201 49 194.96 49 187.5L49 187.5Z" /></g><g ><path class="shp3" d="M48 129.5C48 122.6 53.6 117 60.5 117L177.5 117C184.4 117 190 122.6 190 129.5L190 129.5C190 136.4 184.4 142 177.5 142L60.5 142C53.6 142 48 136.4 48 129.5L48 129.5Z" /><path class="shp4" d="M48 129.5C48 122.6 53.6 117 60.5 117L177.5 117C184.4 117 190 122.6 190 129.5L190 129.5C190 136.4 184.4 142 177.5 142L60.5 142C53.6 142 48 136.4 48 129.5L48 129.5Z" /></g><g ><path class="shp3" d="M48 245.5C48 238.6 53.6 233 60.5 233L140.5 233C147.4 233 153 238.6 153 245.5L153 245.5C153 252.4 147.4 258 140.5 258L60.5 258C53.6 258 48 252.4 48 245.5L48 245.5Z" /><path class="shp4" d="M48 245.5C48 238.6 53.6 233 60.5 233L140.5 233C147.4 233 153 238.6 153 245.5L153 245.5C153 252.4 147.4 258 140.5 258L60.5 258C53.6 258 48 252.4 48 245.5L48 245.5Z" /></g></g><path fill-rule="evenodd" class="shp5" d="M476.12 280.95C464.22 274.17 455.03 264.97 448.54 253.37C442.05 241.77 438.8 228.98 438.8 215.02C438.8 198.3 442.44 184.14 449.71 172.54C456.99 160.94 466.48 152.33 478.18 146.73C489.88 141.12 502.62 138.32 516.38 138.32C529.37 138.32 541.36 140.97 552.38 146.28C563.39 151.59 572.29 160.05 579.07 171.66C585.86 183.26 589.25 197.91 589.25 215.61C589.25 219.94 589.15 223.18 588.95 225.34L478.92 226.53C478.92 231.05 480.35 235.77 483.2 240.69C486.05 245.6 490.38 249.78 496.18 253.22C501.98 256.66 509.01 258.38 517.27 258.38C531.63 258.38 542.35 251.89 549.42 238.91L585.71 250.13C582.96 256.81 578.53 263.25 572.43 269.45C566.34 275.64 558.57 280.81 549.13 284.94C539.69 289.06 528.97 291.13 516.97 291.13C501.63 291.13 488.02 287.74 476.12 280.95ZM548.24 197.03C548.24 192.31 546.67 187.73 543.53 183.31C540.38 178.88 535.9 175.39 530.1 172.84C524.3 170.28 517.76 169.2 510.49 169.59C503.01 169.98 496.08 172.74 489.69 177.85C483.3 182.96 479.71 189.45 478.92 197.32L548.24 197.03ZM662.2 289.65C650.01 287.3 640.92 281.59 634.92 272.55C628.92 263.5 625.92 254.06 625.92 244.23L625.92 176.67L600.55 176.67L600.55 142.75L616.48 142.75C620.81 142.75 623.76 142.01 625.33 140.53C626.9 139.06 627.69 136.55 627.69 133.01L627.69 99.08L665.15 99.08L665.15 142.75L699.67 142.75L699.67 176.67L664.86 176.67L664.86 219.74C664.86 229.97 665.15 236.8 665.74 240.24C666.34 243.68 667.61 246.59 669.58 248.94C672.33 252.29 676.46 253.96 681.97 253.96C687.08 253.96 691.51 252.78 695.24 250.42L706.16 284.05C705.18 284.44 702.87 285.33 699.23 286.7C695.59 288.08 691.95 289.16 688.31 289.95C684.67 290.74 680.89 291.13 676.95 291.13C671.84 291.13 666.92 290.64 662.2 289.65ZM729.55 288.48L729.26 73.13L772.33 73.42L772.33 156.91C773.31 154.74 775.77 152.23 779.7 149.38C783.64 146.53 788.51 144.07 794.31 142.01C800.11 139.94 806.26 138.91 812.74 138.91C833.99 138.91 848.59 145.15 856.55 157.64C864.52 170.13 868.5 184.44 868.5 200.56L868.5 288.48L826.02 288.48L826.02 205.88C826.02 193.88 823.36 185.57 818.05 180.95C812.74 176.33 806.55 174.01 799.47 174.01C792.59 174.01 786.2 176.52 780.3 181.54C774.39 186.55 771.45 194.66 771.45 205.88L771.45 288.48L729.55 288.48ZM925.97 280.95C914.07 274.17 904.88 264.97 898.39 253.37C891.89 241.77 888.65 228.98 888.65 215.02C888.65 198.3 892.29 184.14 899.57 172.54C906.84 160.94 916.33 152.33 928.03 146.73C939.73 141.12 952.47 138.32 966.24 138.32C979.22 138.32 991.21 140.97 1002.22 146.28C1013.24 151.59 1022.14 160.05 1028.92 171.66C1035.71 183.26 1039.1 197.91 1039.1 215.61C1039.1 219.94 1039 223.18 1038.81 225.34L928.77 226.53C928.77 231.05 930.2 235.77 933.05 240.69C935.9 245.6 940.23 249.78 946.03 253.22C951.83 256.66 958.86 258.38 967.12 258.38C981.48 258.38 992.2 251.89 999.28 238.91L1035.56 250.13C1032.81 256.81 1028.38 263.25 1022.28 269.45C1016.19 275.64 1008.42 280.81 998.98 284.94C989.54 289.06 978.82 291.13 966.82 291.13C951.49 291.13 937.87 287.74 925.97 280.95ZM998.1 197.03C998.1 192.31 996.52 187.73 993.38 183.31C990.23 178.88 985.75 175.39 979.95 172.84C974.15 170.28 967.61 169.2 960.34 169.59C952.86 169.98 945.93 172.74 939.54 177.85C933.15 182.96 929.56 189.45 928.77 197.32L998.1 197.03ZM1062.2 287.88L1062.2 143.63L1100.55 143.63L1100.55 165.16C1102.91 159.26 1106.11 154.45 1110.14 150.71C1114.17 146.97 1119.72 143.83 1126.81 141.27C1131.13 139.7 1136.24 138.91 1142.14 138.91C1151.78 138.91 1159.55 140.68 1165.45 144.22L1154.83 179.32C1149.32 176.77 1143.32 175.49 1136.84 175.49C1126.41 175.49 1118.25 178.83 1112.35 185.52C1108.81 189.45 1106.25 193.44 1104.68 197.47C1103.11 201.5 1102.03 206.91 1101.43 213.69C1100.85 220.48 1100.55 230.56 1100.55 243.93L1100.55 288.18L1062.2 287.88ZM1170.85 142.16L1207.72 142.45L1209.2 157.79C1218.64 144.22 1233.19 137.44 1252.86 137.44C1263.48 137.44 1274.05 140.48 1284.57 146.58C1295.09 152.68 1303.75 161.58 1310.53 173.28C1317.32 184.98 1320.71 198.7 1320.71 214.43C1320.71 232.52 1317.07 247.42 1309.8 259.12C1302.52 270.82 1293.52 279.28 1282.8 284.49C1272.08 289.7 1261.41 292.31 1250.8 292.31C1234.47 292.31 1220.8 286.7 1209.79 275.5L1210.09 345.12L1171.44 345.41L1170.85 142.16ZM1264.07 251.45C1269.58 247.81 1273.95 242.8 1277.2 236.41C1280.44 230.02 1282.07 222.89 1282.07 215.02C1282.07 207.74 1280.49 200.96 1277.35 194.66C1274.2 188.37 1269.87 183.36 1264.36 179.62C1258.86 175.88 1252.66 174.01 1245.78 174.01C1232.8 174.01 1223.46 178.24 1217.76 186.7C1212.05 195.16 1209.2 204.69 1209.2 215.31C1209.2 227.51 1212.44 237.49 1218.93 245.26C1225.43 253.03 1234.47 256.91 1246.07 256.91C1252.57 256.91 1258.56 255.09 1264.07 251.45ZM1356.79 282.57C1347.94 275.69 1342.73 266.15 1341.15 253.96C1340.96 252.58 1340.86 250.62 1340.86 248.06C1340.86 234.69 1345.43 224.36 1354.58 217.09C1363.72 209.81 1376.26 205.19 1392.19 203.22L1401.63 202.04C1409.3 201.06 1415.25 200.17 1419.48 199.38C1423.71 198.6 1426.51 197.62 1427.89 196.44C1428.67 195.84 1429.36 194.71 1429.95 193.04C1430.54 191.37 1430.84 189.65 1430.84 187.88C1430.84 184.34 1429.61 181.05 1427.15 178C1424.69 174.95 1420.61 172.64 1414.9 171.06C1410.97 170.08 1407.63 169.59 1404.88 169.59C1397.8 169.59 1391.89 171.61 1387.18 175.64C1382.45 179.67 1379.41 185.52 1378.03 193.19L1343.52 185.81C1344.69 178.74 1347.74 171.7 1352.66 164.72C1357.58 157.74 1364.85 151.5 1374.49 145.99C1384.52 140.48 1396.03 137.73 1409.01 137.73C1417.86 137.73 1426.41 139.21 1434.67 142.16C1447.65 147.07 1457.29 153.86 1463.58 162.51C1469.87 171.16 1473.02 180.9 1473.02 191.72L1473.9 288.48L1435.26 288.48L1434.08 271.66C1429.95 277.36 1424.49 282.33 1417.71 286.56C1410.92 290.79 1402.71 292.9 1393.07 292.9C1377.73 292.9 1365.64 289.46 1356.79 282.57ZM1409.89 261.93C1417.95 260.15 1424.15 256.62 1428.47 251.31C1432.8 246 1434.97 239.8 1434.97 232.72C1434.97 230.75 1434.87 229.28 1434.67 228.29C1430.15 229.08 1425.28 229.62 1420.07 229.92C1414.86 230.21 1411.27 230.46 1409.3 230.66C1401.83 231.05 1396.17 231.54 1392.34 232.13C1388.5 232.72 1385.45 234.1 1383.19 236.26C1380.93 238.42 1379.8 241.67 1379.8 246C1379.8 251.5 1381.62 255.73 1385.26 258.68C1388.9 261.63 1393.86 263.11 1400.15 263.11C1401.93 263.11 1405.17 262.71 1409.89 261.93ZM1533.14 284.05C1522.62 277.95 1513.97 269.05 1507.18 257.35C1500.4 245.65 1497.01 231.93 1497.01 216.2C1497.01 198.11 1500.64 183.21 1507.92 171.51C1515.2 159.81 1524.19 151.35 1534.91 146.14C1545.63 140.93 1556.3 138.32 1566.92 138.32C1583.24 138.32 1596.91 143.93 1607.93 155.13L1607.63 73.42L1646.28 73.13L1646.86 288.48L1609.99 288.18L1608.52 272.84C1599.07 286.41 1584.52 293.19 1564.86 293.19C1554.23 293.19 1543.66 290.15 1533.14 284.05ZM1599.96 243.93C1605.66 235.47 1608.52 225.94 1608.52 215.31C1608.52 203.12 1605.27 193.14 1598.78 185.37C1592.29 177.6 1583.24 173.72 1571.64 173.72C1565.15 173.72 1559.15 175.54 1553.64 179.18C1548.14 182.82 1543.76 187.83 1540.52 194.22C1537.27 200.61 1535.65 207.74 1535.65 215.61C1535.65 222.89 1537.22 229.67 1540.37 235.97C1543.52 242.26 1547.84 247.27 1553.35 251.01C1558.86 254.75 1565.05 256.62 1571.93 256.62C1584.91 256.62 1594.26 252.39 1599.96 243.93Z" /></g></g></g></svg>