<svg width="35" height="40" viewBox="0 0 35 40" fill="none" xmlns="http://www.w3.org/2000/svg">
<path d="M4.03953 0.0922852C5.73646 0.0922852 6.58491 0.544842 6.58491 1.44997V24.3184H16.0453C16.8937 24.3184 17.3179 25.0256 17.3179 26.4398V27.7551C17.3179 29.1693 16.8937 29.8765 16.0453 29.8765H1.74868C0.617393 29.8765 0.0517578 29.3108 0.0517578 28.1794V1.44997C0.0517578 0.544842 0.900211 0.0922852 2.59714 0.0922852H4.03953Z" fill="#AD87FF"/>
<path d="M33.8668 22.6082C34.1816 23.8756 28.3706 24.8184 28.2149 23.7323C28.005 22.4883 27.2414 21.5515 26.4995 20.922C25.7576 20.2925 24.7946 19.9778 23.6105 19.9778C22.0368 19.9778 20.7816 20.5211 19.8448 21.6077C18.9081 22.6944 18.4397 24.5117 18.4397 27.0596C18.4397 29.8924 18.9155 31.8933 19.8673 33.0623C20.819 34.2314 22.0968 34.8159 23.7005 34.8159C24.8995 34.8159 25.8812 34.475 26.6456 33.793C27.41 33.111 27.9496 31.9382 28.2643 30.2746C28.2643 29.1903 34.4662 29.4972 34.0377 31.3312C33.3932 34.179 32.5884 36.3297 30.7598 37.7836C28.9313 39.2374 26.4808 39.9643 23.4082 39.9643C19.916 39.9643 17.132 38.8627 15.0561 36.6595C12.9803 34.4562 11.9424 31.4062 11.9424 27.5093C11.9424 23.5674 12.984 20.4986 15.0674 18.3029C17.1507 16.1071 19.9684 15.0093 23.5206 15.0093C26.4283 15.0093 28.7402 15.635 30.4563 16.8865C32.1725 18.138 33.1174 20.0452 33.8668 22.6082Z" fill="#8855FF"/>
</svg>